<svg width="40" height="40" viewBox="11.5 10.5 17 19" fill="none" xmlns="http://www.w3.org/2000/svg">
  <path fill-rule="evenodd" clip-rule="evenodd"
    d="M18.0392 16.9698V15.5319C18.0392 15.2699 18.0528 15.1825 18.0931 15.0481C18.201 14.6786 18.565 14.4031 18.9963 14.4031C19.4275 14.4031 19.7914 14.6853 19.8992 15.0481C19.9397 15.1825 19.9533 15.2699 19.9533 15.5319V17.7492C19.9533 17.8836 19.9533 18.0179 19.9263 18.1389C19.8522 18.4748 19.5489 18.7773 19.2119 18.8511C19.0906 18.878 18.9558 18.878 18.821 18.878H16.5971C16.3342 18.878 16.2466 18.8645 16.1118 18.8242C15.7479 18.7167 15.4649 18.3539 15.4649 17.9239C15.4649 17.4938 15.7479 17.131 16.1118 17.0235C16.2466 16.9832 16.3342 16.9698 16.5971 16.9698H18.0392ZM25.9646 27.0216H14.0361V16.5465C14.0361 16.4121 14.0833 16.2979 14.1777 16.2038L17.271 13.1197C17.3653 13.0257 17.4799 12.9787 17.6147 12.9787H25.9646V27.0216ZM27.3193 10.6135C27.2587 10.6068 27.1777 10.6001 27.0227 10.6001H17.2979C17.1902 10.6001 17.0823 10.6068 17.0081 10.6135C16.5633 10.6538 16.1657 10.8621 15.849 11.1779L12.2299 14.7861C11.9133 15.102 11.7043 15.4983 11.664 15.9418C11.6571 16.0156 11.6504 16.1231 11.6504 16.2306V28.0764C11.6504 28.231 11.6571 28.3116 11.664 28.3721C11.7177 28.876 12.176 29.3328 12.6815 29.3866C12.7422 29.3934 12.823 29.4001 12.978 29.4001H27.0227C27.1777 29.4001 27.2587 29.3934 27.3193 29.3866C27.8248 29.3328 28.283 28.876 28.3369 28.3721C28.3435 28.3116 28.3504 28.231 28.3504 28.0764V11.9238C28.3504 11.7692 28.3435 11.6885 28.3369 11.6281C28.283 11.1242 27.8248 10.6673 27.3193 10.6135Z"
    fill="white"></path>
</svg>