<svg version="1.1" id="Layer_1" xmlns="http://www.w3.org/2000/svg" xmlns:xlink="http://www.w3.org/1999/xlink" x="0px" y="0px"
	 width="100%" viewBox="0 0 2000 500" enable-background="new 0 0 2000 500" xml:space="preserve">
<path fill="#FFFFFF" opacity="1.000000" stroke="none" 
	d="
M458.000000,1.000000 
	C972.275696,1.000000 1486.551392,1.000000 2000.913574,1.000000 
	C2000.913574,167.590317 2000.913574,334.180695 2000.913574,501.000000 
	C1486.967285,501.000000 972.934570,501.000000 458.553131,500.614044 
	C459.830322,499.933807 461.484741,499.748047 463.077759,499.328918 
	C486.480804,493.171783 500.987610,473.906647 500.991180,448.833771 
	C501.009918,317.030151 501.000092,185.226517 500.998383,53.422890 
	C500.998352,52.256638 501.019836,51.087761 500.953674,49.924530 
	C499.915527,31.684708 492.057251,17.301371 476.100403,8.131835 
	C470.537750,4.935277 464.059875,3.331307 458.000000,1.000000 
M711.769958,273.958466 
	C711.769958,305.522278 711.769958,337.086090 711.769958,368.596619 
	C736.368652,368.596619 759.646667,368.596619 783.411987,368.596619 
	C783.411987,360.073151 783.359558,351.782227 783.422302,343.492188 
	C783.577454,323.005554 783.481445,302.510040 784.103271,282.036865 
	C784.404419,272.120880 787.088867,262.588867 794.257202,255.067551 
	C803.721252,245.137482 824.856445,244.248123 829.171570,263.386414 
	C830.947571,271.263428 831.807861,279.489685 831.917786,287.572968 
	C832.259766,312.727478 832.043213,337.889587 832.043274,363.048767 
	C832.043274,364.833130 832.043274,366.617493 832.043274,368.585449 
	C855.922852,368.585449 879.317810,368.585449 902.734802,368.585449 
	C902.890442,367.880585 903.085022,367.411682 903.084412,366.943054 
	C903.037048,330.788147 903.233093,294.630035 902.780151,258.480072 
	C902.609436,244.849838 899.053284,231.774338 890.945984,220.454041 
	C879.614563,204.632004 863.657349,197.122238 844.619934,195.637085 
	C819.809387,193.701584 798.640076,200.954056 782.627991,220.767181 
	C780.146790,223.837494 777.903320,227.099915 775.306763,230.601364 
	C770.351990,216.272873 761.482788,205.630859 747.638306,200.431198 
	C717.255859,189.020264 683.014648,195.412613 661.835938,224.909393 
	C660.838684,226.298431 659.783081,227.645584 658.234985,229.702698 
	C657.741028,219.151382 657.294617,209.615738 656.848694,200.090607 
	C634.405090,200.090607 612.479370,200.090607 591.299316,200.090607 
	C591.299316,256.386017 591.299316,312.419739 591.299316,368.518860 
	C615.901184,368.518860 639.458679,368.518860 663.284119,368.518860 
	C663.284119,366.214294 663.269104,364.223755 663.286316,362.233459 
	C663.511536,336.249939 663.448669,310.259094 664.104065,284.286377 
	C664.394409,272.782501 667.541077,261.839539 676.635559,253.738464 
	C688.332214,243.319427 704.488525,247.589355 709.311279,262.370056 
	C710.437134,265.820312 710.890198,269.490112 711.769958,273.958466 
M1721.505981,368.838379 
	C1744.864014,368.838379 1768.222046,368.838379 1792.365723,368.838379 
	C1771.847412,337.640472 1751.875488,307.273315 1731.955811,276.985535 
	C1751.460815,251.244110 1770.699951,225.853714 1790.417603,199.831604 
	C1764.018188,199.831604 1738.562500,199.785400 1713.108276,199.957123 
	C1711.718140,199.966492 1709.946167,201.513138 1709.017700,202.817947 
	C1699.470947,216.235474 1690.014282,229.718094 1680.633301,243.252304 
	C1675.698364,250.371902 1670.962646,257.629517 1665.340332,266.012512 
	C1665.340332,218.173416 1665.340332,171.802139 1665.340332,125.375465 
	C1641.420166,125.375465 1617.893555,125.375465 1594.498535,125.375465 
	C1594.498535,206.651016 1594.498535,287.548981 1594.498535,368.538635 
	C1618.205078,368.538635 1641.605957,368.538635 1665.456787,368.538635 
	C1665.456787,343.053314 1665.456787,317.864197 1665.456787,291.981201 
	C1666.316040,292.916748 1666.710449,293.199341 1666.909180,293.583252 
	C1677.593994,314.224854 1688.886230,334.585419 1698.663696,355.649017 
	C1703.403687,365.860260 1708.968872,371.446777 1721.505981,368.838379 
M1278.540283,195.851898 
	C1256.289062,199.072250 1239.385010,210.822723 1226.281128,229.831604 
	C1225.778931,219.076584 1225.332886,209.526596 1224.894287,200.133087 
	C1202.359497,200.133087 1180.427124,200.133087 1159.406006,200.133087 
	C1159.406006,256.473419 1159.406006,312.511230 1159.406006,368.836304 
	C1183.132080,368.836304 1205.767212,368.838043 1228.402344,368.829163 
	C1229.203613,368.828827 1230.005005,368.723206 1231.350830,368.628204 
	C1231.350830,366.810150 1231.351196,365.199921 1231.350708,363.589722 
	C1231.344727,341.761414 1231.201782,319.931763 1231.410400,298.105499 
	C1231.478638,290.970001 1232.003540,283.770752 1233.117310,276.726807 
	C1235.858398,259.392242 1247.632812,248.252960 1262.638062,248.172760 
	C1271.998413,248.122726 1278.244141,252.179337 1281.136353,261.137268 
	C1282.701660,265.985413 1283.872803,271.189575 1283.948486,276.252167 
	C1284.381836,305.236664 1284.433472,334.226898 1284.612427,363.215179 
	C1284.623291,364.974579 1284.613892,366.734100 1284.613892,368.491516 
	C1308.843262,368.491516 1332.395142,368.491516 1356.157227,368.491516 
	C1356.157227,335.827240 1356.222046,303.507935 1356.105957,271.189301 
	C1356.080811,264.212616 1355.861206,257.177612 1354.943848,250.274109 
	C1352.164185,229.355835 1342.193115,212.998596 1323.090698,203.111221 
	C1309.392456,196.020981 1294.656372,194.231628 1278.540283,195.851898 
M993.071106,368.452606 
	C1014.463562,374.504486 1036.117065,374.671143 1057.844360,370.907013 
	C1107.174561,362.360962 1135.776367,327.303833 1132.846558,279.249908 
	C1130.398804,239.102341 1109.152588,212.094589 1070.712280,200.645935 
	C1051.792114,195.010956 1032.436035,193.972382 1012.888489,196.304810 
	C997.067810,198.192566 981.901978,202.303268 968.136047,210.585464 
	C934.551636,230.791153 923.873840,267.147400 930.652161,303.303223 
	C937.138000,337.899200 959.267639,358.421051 993.071106,368.452606 
M1922.894653,355.452576 
	C1923.232788,359.843170 1923.570801,364.233795 1923.896240,368.458191 
	C1945.118652,368.458191 1965.488159,368.458191 1985.886108,368.458191 
	C1985.886108,367.249359 1985.946899,366.415680 1985.877197,365.593048 
	C1983.444946,336.846802 1982.300537,308.084564 1983.756592,279.226501 
	C1984.182495,270.785431 1983.804321,262.214386 1982.846558,253.810959 
	C1980.637329,234.429947 1971.910645,218.706146 1954.910767,208.354645 
	C1941.979980,200.480896 1927.535034,197.381042 1912.674194,196.035522 
	C1892.827271,194.238556 1873.034424,195.456802 1853.377930,198.239166 
	C1843.449463,199.644531 1833.690552,202.246887 1823.906860,204.297150 
	C1824.453613,220.285202 1824.958008,235.031555 1825.474121,250.121582 
	C1826.594482,249.888229 1827.238159,249.843781 1827.812866,249.621536 
	C1842.822510,243.817535 1858.396729,240.572662 1874.417358,239.430374 
	C1885.076172,238.670395 1895.739014,238.176895 1905.810913,242.847702 
	C1913.824341,246.563843 1917.487915,252.664200 1916.683105,261.002747 
	C1909.396484,260.634247 1902.104248,260.062378 1894.804443,259.934784 
	C1873.697144,259.565857 1853.012329,261.510681 1833.201416,269.832458 
	C1794.976440,285.889069 1796.161987,330.061096 1812.304321,350.211792 
	C1823.326660,363.971344 1838.401001,369.943848 1855.345703,371.491241 
	C1882.759399,373.994659 1906.069580,366.520020 1922.040894,342.452179 
	C1922.238770,342.154053 1922.769531,342.076752 1922.890747,342.018524 
	C1922.890747,346.202209 1922.890747,350.337982 1922.894653,355.452576 
M1561.208130,368.838257 
	C1562.426147,368.702118 1563.644287,368.565979 1565.025146,368.411652 
	C1561.779419,335.076263 1561.394287,302.126373 1562.893921,269.126892 
	C1563.119263,264.170197 1562.501343,259.135223 1561.875000,254.186890 
	C1559.578369,236.043762 1552.114258,220.765305 1536.609985,210.212204 
	C1523.001709,200.949783 1507.508789,196.812271 1491.434692,196.221024 
	C1474.506592,195.598373 1457.454346,195.997116 1440.568604,197.350540 
	C1427.922363,198.364136 1415.454102,201.598892 1402.801392,203.863541 
	C1403.352051,220.122223 1403.855835,234.994019 1404.374146,250.295532 
	C1405.751343,249.853882 1406.521851,249.640656 1407.268311,249.362488 
	C1426.507812,242.192184 1446.419922,238.551636 1466.916382,239.181961 
	C1473.076294,239.371414 1479.451660,240.990143 1485.223999,243.245178 
	C1492.698120,246.165070 1496.171387,252.491226 1496.063232,261.114716 
	C1492.790283,260.893250 1489.678223,260.663147 1486.563477,260.475067 
	C1466.200928,259.245270 1445.936401,259.441620 1426.072021,264.917603 
	C1393.807739,273.811920 1379.454590,292.002136 1381.075928,322.700958 
	C1381.859863,337.540527 1388.088379,349.936768 1400.185059,359.002075 
	C1414.966431,370.079407 1432.039185,373.144165 1449.844238,371.791809 
	C1470.763550,370.202942 1488.273315,361.684265 1500.134033,343.531281 
	C1500.565186,342.871307 1501.291748,342.404144 1502.800293,340.977173 
	C1502.800293,351.011505 1502.800293,359.847870 1502.800293,368.838348 
	C1522.624878,368.838348 1541.446167,368.838348 1561.208130,368.838257 
z"/>
<path fill="#000000" opacity="1.000000" stroke="none" 
	d="
M457.531342,1.000000 
	C464.059875,3.331307 470.537750,4.935277 476.100403,8.131835 
	C492.057251,17.301371 499.915527,31.684708 500.953674,49.924530 
	C501.019836,51.087761 500.998352,52.256638 500.998383,53.422890 
	C501.000092,185.226517 501.009918,317.030151 500.991180,448.833771 
	C500.987610,473.906647 486.480804,493.171783 463.077759,499.328918 
	C461.484741,499.748047 459.830322,499.933807 458.102234,500.614044 
	C319.645782,501.000000 181.291550,501.000000 42.357288,500.644775 
	C20.942932,494.827209 6.989961,482.412323 1.967364,460.941223 
	C1.881055,460.572235 1.332737,460.311340 1.000003,460.000000 
	C1.000000,320.979095 1.000000,181.958206 1.349387,42.334770 
	C6.821142,21.090839 19.358612,7.664950 40.109917,2.195227 
	C40.797211,2.014068 41.372501,1.408002 42.000000,1.000001 
	C180.354233,1.000000 318.708466,1.000000 457.531342,1.000000 
M189.826370,101.676941 
	C180.798035,91.646667 171.712738,81.666786 162.768555,71.562027 
	C159.040253,67.349930 155.070999,64.275299 148.967209,65.642776 
	C143.136215,66.949142 140.729614,71.118843 139.048798,76.326477 
	C130.787613,101.922050 122.451027,127.493782 113.973038,153.018127 
	C113.188766,155.379303 111.512550,157.628067 109.754700,159.450897 
	C101.214272,168.306976 91.508133,176.227509 84.024292,185.881989 
	C47.680141,232.767517 40.283310,283.891449 65.899498,337.886993 
	C86.568268,381.454010 122.589470,408.879578 166.734146,426.009552 
	C208.589554,442.251190 251.864563,445.262115 295.868103,437.056519 
	C343.509033,428.172638 384.534271,406.982513 415.959656,369.452820 
	C443.983063,335.985931 456.077393,297.528442 449.145020,253.876190 
	C443.771057,220.036774 426.948608,192.329788 402.950409,168.506729 
	C400.895020,166.466339 399.068359,163.951523 397.878082,161.321045 
	C384.535217,131.834030 371.356873,102.272614 358.092743,72.749886 
	C352.798431,60.966064 342.193817,59.810940 334.628571,70.178764 
	C324.231140,84.427902 313.857147,98.694435 303.554108,113.011803 
	C302.098816,115.034126 300.909363,116.409706 297.970886,115.779755 
	C271.815155,110.172592 245.462112,109.693909 218.987259,113.099922 
	C213.317291,113.829369 206.879349,116.497536 202.181213,114.683304 
	C197.331543,112.810570 194.171753,106.561646 189.826370,101.676941 
z"/>
<path fill="#FCFCFC" opacity="1.000000" stroke="none" 
	d="
M41.531342,1.000001 
	C41.372501,1.408002 40.797211,2.014068 40.109917,2.195227 
	C19.358612,7.664950 6.821142,21.090839 1.349387,41.866112 
	C1.000000,28.406666 1.000000,14.813334 1.000000,1.000000 
	C14.353423,1.000000 27.708054,1.000000 41.531342,1.000001 
z"/>
<path fill="#FCFCFC" opacity="1.000000" stroke="none" 
	d="
M1.000003,460.468658 
	C1.332737,460.311340 1.881055,460.572235 1.967364,460.941223 
	C6.989961,482.412323 20.942932,494.827209 41.888630,500.644775 
	C28.406666,501.000000 14.813334,501.000000 1.000000,501.000000 
	C1.000000,487.646576 1.000000,474.291962 1.000003,460.468658 
z"/>
<path fill="#010101" opacity="1.000000" stroke="none" 
	d="
M711.711426,273.508667 
	C710.890198,269.490112 710.437134,265.820312 709.311279,262.370056 
	C704.488525,247.589355 688.332214,243.319427 676.635559,253.738464 
	C667.541077,261.839539 664.394409,272.782501 664.104065,284.286377 
	C663.448669,310.259094 663.511536,336.249939 663.286316,362.233459 
	C663.269104,364.223755 663.284119,366.214294 663.284119,368.518860 
	C639.458679,368.518860 615.901184,368.518860 591.299316,368.518860 
	C591.299316,312.419739 591.299316,256.386017 591.299316,200.090607 
	C612.479370,200.090607 634.405090,200.090607 656.848694,200.090607 
	C657.294617,209.615738 657.741028,219.151382 658.234985,229.702698 
	C659.783081,227.645584 660.838684,226.298431 661.835938,224.909393 
	C683.014648,195.412613 717.255859,189.020264 747.638306,200.431198 
	C761.482788,205.630859 770.351990,216.272873 775.306763,230.601364 
	C777.903320,227.099915 780.146790,223.837494 782.627991,220.767181 
	C798.640076,200.954056 819.809387,193.701584 844.619934,195.637085 
	C863.657349,197.122238 879.614563,204.632004 890.945984,220.454041 
	C899.053284,231.774338 902.609436,244.849838 902.780151,258.480072 
	C903.233093,294.630035 903.037048,330.788147 903.084412,366.943054 
	C903.085022,367.411682 902.890442,367.880585 902.734802,368.585449 
	C879.317810,368.585449 855.922852,368.585449 832.043274,368.585449 
	C832.043274,366.617493 832.043274,364.833130 832.043274,363.048767 
	C832.043213,337.889587 832.259766,312.727478 831.917786,287.572968 
	C831.807861,279.489685 830.947571,271.263428 829.171570,263.386414 
	C824.856445,244.248123 803.721252,245.137482 794.257202,255.067551 
	C787.088867,262.588867 784.404419,272.120880 784.103271,282.036865 
	C783.481445,302.510040 783.577454,323.005554 783.422302,343.492188 
	C783.359558,351.782227 783.411987,360.073151 783.411987,368.596619 
	C759.646667,368.596619 736.368652,368.596619 711.769958,368.596619 
	C711.769958,337.086090 711.769958,305.522278 711.711426,273.508667 
z"/>
<path fill="#010101" opacity="1.000000" stroke="none" 
	d="
M1721.007568,368.838379 
	C1708.968872,371.446777 1703.403687,365.860260 1698.663696,355.649017 
	C1688.886230,334.585419 1677.593994,314.224854 1666.909180,293.583252 
	C1666.710449,293.199341 1666.316040,292.916748 1665.456787,291.981201 
	C1665.456787,317.864197 1665.456787,343.053314 1665.456787,368.538635 
	C1641.605957,368.538635 1618.205078,368.538635 1594.498535,368.538635 
	C1594.498535,287.548981 1594.498535,206.651016 1594.498535,125.375465 
	C1617.893555,125.375465 1641.420166,125.375465 1665.340332,125.375465 
	C1665.340332,171.802139 1665.340332,218.173416 1665.340332,266.012512 
	C1670.962646,257.629517 1675.698364,250.371902 1680.633301,243.252304 
	C1690.014282,229.718094 1699.470947,216.235474 1709.017700,202.817947 
	C1709.946167,201.513138 1711.718140,199.966492 1713.108276,199.957123 
	C1738.562500,199.785400 1764.018188,199.831604 1790.417603,199.831604 
	C1770.699951,225.853714 1751.460815,251.244110 1731.955811,276.985535 
	C1751.875488,307.273315 1771.847412,337.640472 1792.365723,368.838379 
	C1768.222046,368.838379 1744.864014,368.838379 1721.007568,368.838379 
z"/>
<path fill="#010101" opacity="1.000000" stroke="none" 
	d="
M1278.986328,195.818710 
	C1294.656372,194.231628 1309.392456,196.020981 1323.090698,203.111221 
	C1342.193115,212.998596 1352.164185,229.355835 1354.943848,250.274109 
	C1355.861206,257.177612 1356.080811,264.212616 1356.105957,271.189301 
	C1356.222046,303.507935 1356.157227,335.827240 1356.157227,368.491516 
	C1332.395142,368.491516 1308.843262,368.491516 1284.613892,368.491516 
	C1284.613892,366.734100 1284.623291,364.974579 1284.612427,363.215179 
	C1284.433472,334.226898 1284.381836,305.236664 1283.948486,276.252167 
	C1283.872803,271.189575 1282.701660,265.985413 1281.136353,261.137268 
	C1278.244141,252.179337 1271.998413,248.122726 1262.638062,248.172760 
	C1247.632812,248.252960 1235.858398,259.392242 1233.117310,276.726807 
	C1232.003540,283.770752 1231.478638,290.970001 1231.410400,298.105499 
	C1231.201782,319.931763 1231.344727,341.761414 1231.350708,363.589722 
	C1231.351196,365.199921 1231.350830,366.810150 1231.350830,368.628204 
	C1230.005005,368.723206 1229.203613,368.828827 1228.402344,368.829163 
	C1205.767212,368.838043 1183.132080,368.836304 1159.406006,368.836304 
	C1159.406006,312.511230 1159.406006,256.473419 1159.406006,200.133087 
	C1180.427124,200.133087 1202.359497,200.133087 1224.894287,200.133087 
	C1225.332886,209.526596 1225.778931,219.076584 1226.281128,229.831604 
	C1239.385010,210.822723 1256.289062,199.072250 1278.986328,195.818710 
z"/>
<path fill="#010101" opacity="1.000000" stroke="none" 
	d="
M992.692261,368.313690 
	C959.267639,358.421051 937.138000,337.899200 930.652161,303.303223 
	C923.873840,267.147400 934.551636,230.791153 968.136047,210.585464 
	C981.901978,202.303268 997.067810,198.192566 1012.888489,196.304810 
	C1032.436035,193.972382 1051.792114,195.010956 1070.712280,200.645935 
	C1109.152588,212.094589 1130.398804,239.102341 1132.846558,279.249908 
	C1135.776367,327.303833 1107.174561,362.360962 1057.844360,370.907013 
	C1036.117065,374.671143 1014.463562,374.504486 992.692261,368.313690 
M1041.454102,321.176697 
	C1047.761353,318.868591 1052.046631,314.260590 1054.867920,308.445099 
	C1062.024048,293.693970 1061.513428,278.408752 1056.529175,263.287781 
	C1052.631470,251.463806 1043.967407,245.360382 1032.486206,244.940201 
	C1019.378784,244.460495 1010.224121,249.771210 1004.995850,261.475952 
	C999.337463,274.143616 999.027588,287.370972 1002.843079,300.502960 
	C1008.060242,318.458801 1022.690002,326.352570 1041.454102,321.176697 
z"/>
<path fill="#010101" opacity="1.000000" stroke="none" 
	d="
M1922.892700,354.963165 
	C1922.890747,350.337982 1922.890747,346.202209 1922.890747,342.018524 
	C1922.769531,342.076752 1922.238770,342.154053 1922.040894,342.452179 
	C1906.069580,366.520020 1882.759399,373.994659 1855.345703,371.491241 
	C1838.401001,369.943848 1823.326660,363.971344 1812.304321,350.211792 
	C1796.161987,330.061096 1794.976440,285.889069 1833.201416,269.832458 
	C1853.012329,261.510681 1873.697144,259.565857 1894.804443,259.934784 
	C1902.104248,260.062378 1909.396484,260.634247 1916.683105,261.002747 
	C1917.487915,252.664200 1913.824341,246.563843 1905.810913,242.847702 
	C1895.739014,238.176895 1885.076172,238.670395 1874.417358,239.430374 
	C1858.396729,240.572662 1842.822510,243.817535 1827.812866,249.621536 
	C1827.238159,249.843781 1826.594482,249.888229 1825.474121,250.121582 
	C1824.958008,235.031555 1824.453613,220.285202 1823.906860,204.297150 
	C1833.690552,202.246887 1843.449463,199.644531 1853.377930,198.239166 
	C1873.034424,195.456802 1892.827271,194.238556 1912.674194,196.035522 
	C1927.535034,197.381042 1941.979980,200.480896 1954.910767,208.354645 
	C1971.910645,218.706146 1980.637329,234.429947 1982.846558,253.810959 
	C1983.804321,262.214386 1984.182495,270.785431 1983.756592,279.226501 
	C1982.300537,308.084564 1983.444946,336.846802 1985.877197,365.593048 
	C1985.946899,366.415680 1985.886108,367.249359 1985.886108,368.458191 
	C1965.488159,368.458191 1945.118652,368.458191 1923.896240,368.458191 
	C1923.570801,364.233795 1923.232788,359.843170 1922.892700,354.963165 
M1867.260742,315.146088 
	C1867.940430,320.589661 1870.357178,324.928223 1875.330444,327.553802 
	C1881.268433,330.688751 1887.604004,331.638092 1894.173706,330.408569 
	C1909.932983,327.459198 1919.188110,313.515137 1917.699829,295.149658 
	C1907.024536,292.000458 1885.347900,294.366852 1875.953125,299.786591 
	C1870.384399,302.999115 1866.976929,307.588470 1867.260742,315.146088 
z"/>
<path fill="#010101" opacity="1.000000" stroke="none" 
	d="
M1560.737793,368.838318 
	C1541.446167,368.838348 1522.624878,368.838348 1502.800293,368.838348 
	C1502.800293,359.847870 1502.800293,351.011505 1502.800293,340.977173 
	C1501.291748,342.404144 1500.565186,342.871307 1500.134033,343.531281 
	C1488.273315,361.684265 1470.763550,370.202942 1449.844238,371.791809 
	C1432.039185,373.144165 1414.966431,370.079407 1400.185059,359.002075 
	C1388.088379,349.936768 1381.859863,337.540527 1381.075928,322.700958 
	C1379.454590,292.002136 1393.807739,273.811920 1426.072021,264.917603 
	C1445.936401,259.441620 1466.200928,259.245270 1486.563477,260.475067 
	C1489.678223,260.663147 1492.790283,260.893250 1496.063232,261.114716 
	C1496.171387,252.491226 1492.698120,246.165070 1485.223999,243.245178 
	C1479.451660,240.990143 1473.076294,239.371414 1466.916382,239.181961 
	C1446.419922,238.551636 1426.507812,242.192184 1407.268311,249.362488 
	C1406.521851,249.640656 1405.751343,249.853882 1404.374146,250.295532 
	C1403.855835,234.994019 1403.352051,220.122223 1402.801392,203.863541 
	C1415.454102,201.598892 1427.922363,198.364136 1440.568604,197.350540 
	C1457.454346,195.997116 1474.506592,195.598373 1491.434692,196.221024 
	C1507.508789,196.812271 1523.001709,200.949783 1536.609985,210.212204 
	C1552.114258,220.765305 1559.578369,236.043762 1561.875000,254.186890 
	C1562.501343,259.135223 1563.119263,264.170197 1562.893921,269.126892 
	C1561.394287,302.126373 1561.779419,335.076263 1565.025146,368.411652 
	C1563.644287,368.565979 1562.426147,368.702118 1560.737793,368.838318 
M1462.291138,296.677185 
	C1459.282227,298.038483 1456.061523,299.069611 1453.310669,300.833405 
	C1448.375366,303.997711 1445.627686,308.615753 1446.147095,314.696228 
	C1446.684814,320.992615 1449.468994,326.260925 1455.677979,328.001160 
	C1461.278809,329.570892 1467.487183,330.999084 1473.084351,330.170837 
	C1488.942261,327.824219 1498.288208,313.185974 1496.593384,295.097046 
	C1488.956055,292.960815 1479.050781,293.336517 1462.291138,296.677185 
z"/>
<path fill="#FEFEFE" opacity="1.000000" stroke="none" 
	d="
M190.049515,101.952087 
	C194.171753,106.561646 197.331543,112.810570 202.181213,114.683304 
	C206.879349,116.497536 213.317291,113.829369 218.987259,113.099922 
	C245.462112,109.693909 271.815155,110.172592 297.970886,115.779755 
	C300.909363,116.409706 302.098816,115.034126 303.554108,113.011803 
	C313.857147,98.694435 324.231140,84.427902 334.628571,70.178764 
	C342.193817,59.810940 352.798431,60.966064 358.092743,72.749886 
	C371.356873,102.272614 384.535217,131.834030 397.878082,161.321045 
	C399.068359,163.951523 400.895020,166.466339 402.950409,168.506729 
	C426.948608,192.329788 443.771057,220.036774 449.145020,253.876190 
	C456.077393,297.528442 443.983063,335.985931 415.959656,369.452820 
	C384.534271,406.982513 343.509033,428.172638 295.868103,437.056519 
	C251.864563,445.262115 208.589554,442.251190 166.734146,426.009552 
	C122.589470,408.879578 86.568268,381.454010 65.899498,337.886993 
	C40.283310,283.891449 47.680141,232.767517 84.024292,185.881989 
	C91.508133,176.227509 101.214272,168.306976 109.754700,159.450897 
	C111.512550,157.628067 113.188766,155.379303 113.973038,153.018127 
	C122.451027,127.493782 130.787613,101.922050 139.048798,76.326477 
	C140.729614,71.118843 143.136215,66.949142 148.967209,65.642776 
	C155.070999,64.275299 159.040253,67.349930 162.768555,71.562027 
	C171.712738,81.666786 180.798035,91.646667 190.049515,101.952087 
M226.136276,222.310699 
	C232.250732,227.795349 233.505478,235.004761 233.497284,242.722916 
	C233.466644,271.549927 233.330765,300.378754 233.655975,329.202148 
	C233.703217,333.390564 235.124054,338.205719 237.521881,341.587433 
	C242.066345,347.996582 250.240158,349.548737 257.765594,346.769958 
	C264.584167,344.252197 268.475128,338.120941 268.493134,329.307709 
	C268.551056,300.980652 268.498444,272.653381 268.539276,244.326279 
	C268.543579,241.340500 268.713501,238.332840 269.101044,235.373901 
	C270.265930,226.480255 277.703125,218.627060 286.058838,217.274185 
	C293.344269,216.094620 302.163849,220.697174 305.455170,228.512238 
	C307.260956,232.799957 308.008087,237.820114 308.045013,242.519333 
	C308.271454,271.344604 308.152893,300.172546 308.161194,328.999603 
	C308.164429,340.220184 315.189148,347.922577 325.455383,348.003601 
	C336.407990,348.090057 343.145935,340.929230 343.160522,328.992828 
	C343.197968,298.332886 343.105042,267.672638 343.209503,237.013000 
	C343.246582,226.134430 340.404724,216.229462 333.676025,207.717209 
	C320.884491,191.535110 304.427795,183.088791 283.397217,184.837311 
	C271.075500,185.861755 260.763458,191.533081 251.351395,198.833328 
	C238.398300,188.661163 224.348907,182.828598 207.771759,184.898178 
	C184.002731,187.865646 159.485321,207.339600 159.092834,236.522659 
	C158.669373,268.010132 158.962753,299.507721 159.020050,331.000763 
	C159.034119,338.734833 163.560654,344.674377 170.880447,347.082672 
	C183.140808,351.116516 193.776810,342.997284 193.816299,329.351959 
	C193.899216,300.691742 193.829803,272.031189 193.860886,243.370773 
	C193.863770,240.712051 193.855270,238.001648 194.332947,235.403641 
	C197.089996,220.408676 212.719727,210.990356 226.136276,222.310699 
z"/>
<path fill="#FDFDFD" opacity="1.000000" stroke="none" 
	d="
M1041.113770,321.380188 
	C1022.690002,326.352570 1008.060242,318.458801 1002.843079,300.502960 
	C999.027588,287.370972 999.337463,274.143616 1004.995850,261.475952 
	C1010.224121,249.771210 1019.378784,244.460495 1032.486206,244.940201 
	C1043.967407,245.360382 1052.631470,251.463806 1056.529175,263.287781 
	C1061.513428,278.408752 1062.024048,293.693970 1054.867920,308.445099 
	C1052.046631,314.260590 1047.761353,318.868591 1041.113770,321.380188 
z"/>
<path fill="#FCFCFC" opacity="1.000000" stroke="none" 
	d="
M1867.236084,314.736938 
	C1866.976929,307.588470 1870.384399,302.999115 1875.953125,299.786591 
	C1885.347900,294.366852 1907.024536,292.000458 1917.699829,295.149658 
	C1919.188110,313.515137 1909.932983,327.459198 1894.173706,330.408569 
	C1887.604004,331.638092 1881.268433,330.688751 1875.330444,327.553802 
	C1870.357178,324.928223 1867.940430,320.589661 1867.236084,314.736938 
z"/>
<path fill="#FBFBFB" opacity="1.000000" stroke="none" 
	d="
M1462.669189,296.523346 
	C1479.050781,293.336517 1488.956055,292.960815 1496.593384,295.097046 
	C1498.288208,313.185974 1488.942261,327.824219 1473.084351,330.170837 
	C1467.487183,330.999084 1461.278809,329.570892 1455.677979,328.001160 
	C1449.468994,326.260925 1446.684814,320.992615 1446.147095,314.696228 
	C1445.627686,308.615753 1448.375366,303.997711 1453.310669,300.833405 
	C1456.061523,299.069611 1459.282227,298.038483 1462.669189,296.523346 
z"/>
<path fill="#030303" opacity="1.000000" stroke="none" 
	d="
M225.861481,222.071259 
	C212.719727,210.990356 197.089996,220.408676 194.332947,235.403641 
	C193.855270,238.001648 193.863770,240.712051 193.860886,243.370773 
	C193.829803,272.031189 193.899216,300.691742 193.816299,329.351959 
	C193.776810,342.997284 183.140808,351.116516 170.880447,347.082672 
	C163.560654,344.674377 159.034119,338.734833 159.020050,331.000763 
	C158.962753,299.507721 158.669373,268.010132 159.092834,236.522659 
	C159.485321,207.339600 184.002731,187.865646 207.771759,184.898178 
	C224.348907,182.828598 238.398300,188.661163 251.351395,198.833328 
	C260.763458,191.533081 271.075500,185.861755 283.397217,184.837311 
	C304.427795,183.088791 320.884491,191.535110 333.676025,207.717209 
	C340.404724,216.229462 343.246582,226.134430 343.209503,237.013000 
	C343.105042,267.672638 343.197968,298.332886 343.160522,328.992828 
	C343.145935,340.929230 336.407990,348.090057 325.455383,348.003601 
	C315.189148,347.922577 308.164429,340.220184 308.161194,328.999603 
	C308.152893,300.172546 308.271454,271.344604 308.045013,242.519333 
	C308.008087,237.820114 307.260956,232.799957 305.455170,228.512238 
	C302.163849,220.697174 293.344269,216.094620 286.058838,217.274185 
	C277.703125,218.627060 270.265930,226.480255 269.101044,235.373901 
	C268.713501,238.332840 268.543579,241.340500 268.539276,244.326279 
	C268.498444,272.653381 268.551056,300.980652 268.493134,329.307709 
	C268.475128,338.120941 264.584167,344.252197 257.765594,346.769958 
	C250.240158,349.548737 242.066345,347.996582 237.521881,341.587433 
	C235.124054,338.205719 233.703217,333.390564 233.655975,329.202148 
	C233.330765,300.378754 233.466644,271.549927 233.497284,242.722916 
	C233.505478,235.004761 232.250732,227.795349 225.861481,222.071259 
z"/>
</svg>